<?xml version="1.0" encoding="UTF-8"?>
<svg version="1.1" xmlns="http://www.w3.org/2000/svg" width="32" height="32">
<path d="M0 0 C1.65 0 3.3 0 5 0 C5.27714844 0.92683594 5.55429688 1.85367188 5.83984375 2.80859375 C6.20207031 4.00613281 6.56429688 5.20367187 6.9375 6.4375 C7.47697266 8.22994141 7.47697266 8.22994141 8.02734375 10.05859375 C8.70889142 12.85867545 8.70889142 12.85867545 10 14 C10.66 12.35 11.32 10.7 12 9 C13.65 9 15.3 9 17 9 C17.33 10.32 17.66 11.64 18 13 C18.66 13 19.32 13 20 13 C20.33 13.99 20.66 14.98 21 16 C21.26554687 15.32453125 21.53109375 14.6490625 21.8046875 13.953125 C22.15789063 13.06109375 22.51109375 12.1690625 22.875 11.25 C23.22304688 10.36828125 23.57109375 9.4865625 23.9296875 8.578125 C24.8646709 6.3259752 25.87780794 4.16350541 27 2 C28.32 2 29.64 2 31 2 C31.38792378 8.85332014 29.99955127 14.46993393 28 21 C27.57074219 22.44826172 27.57074219 22.44826172 27.1328125 23.92578125 C26.43148463 26.28691842 25.72040658 28.64462813 25 31 C23.02 31 21.04 31 19 31 C18.79503906 30.36191406 18.59007813 29.72382813 18.37890625 29.06640625 C18.10949219 28.24011719 17.84007813 27.41382812 17.5625 26.5625 C17.29566406 25.73878906 17.02882813 24.91507813 16.75390625 24.06640625 C16.17844506 22.03780412 16.17844506 22.03780412 15 21 C14.01 23.97 13.02 26.94 12 30 C10.35 30 8.7 30 7 30 C6.61908203 28.38931641 6.61908203 28.38931641 6.23046875 26.74609375 C5.8831341 25.30981802 5.53545967 23.87362444 5.1875 22.4375 C4.9390332 21.38079102 4.9390332 21.38079102 4.68554688 20.30273438 C3.82762679 16.79011818 2.86348399 13.51930146 1.375 10.21875 C-0.1780469 6.5832084 -0.23955859 3.91279025 0 0 Z " fill="#453D3E" transform="translate(0,0)"/>
</svg>
